<svg width="135" height="18" viewBox="0 0 135 18" fill="none" xmlns="http://www.w3.org/2000/svg">
    <path d="M12.3861 4.74806C11.3238 3.72958 9.74263 3.16375 8.36312 3.16375C4.97213 3.16375 2.91639 5.74193 2.91639 8.99665C2.91639 11.597 4.43115 14.2883 8.36312 14.2883C9.60738 14.2883 10.6918 14.0177 11.9336 13.0214V10.2169H7.88853V7.54766H14.668V14.2195C13.109 16.0055 11.1418 17.0682 8.36312 17.0682C2.41967 17.0682 0 13.1567 0 8.99665C0 4.5414 2.78115 0.425659 8.36312 0.425659C10.4877 0.425659 12.6123 1.23994 14.2402 2.84639L12.3861 4.74806Z" fill="#9900CC"/>
    <path d="M19.6402 0.905396V16.7116H16.9058V0.905396H19.6402Z" fill="#9900CC"/>
    <path d="M33.1353 11.1468C33.1353 14.3572 30.9418 16.9575 27.3271 16.9575C23.7099 16.9575 21.541 14.3572 21.541 11.1468C21.541 7.95847 23.7566 5.336 27.305 5.336C30.8533 5.336 33.1353 7.95847 33.1353 11.1468ZM24.2976 11.1468C24.2976 12.8418 25.3156 14.4261 27.3271 14.4261C29.3386 14.4261 30.3566 12.8442 30.3566 11.1468C30.3566 9.47389 29.1812 7.84529 27.3271 7.84529C25.3377 7.84529 24.2976 9.47389 24.2976 11.1468Z" fill="#9900CC"/>
    <path d="M37.7902 0.905356V7.07774C38.4467 5.92396 40.2762 5.29171 41.4516 5.29171C44.7074 5.29171 47.1246 7.28194 47.1246 11.1246C47.1246 14.7877 44.6606 16.9575 41.3828 16.9575C40.0254 16.9575 38.6484 16.5049 37.7877 15.1715L37.6057 16.7091H35.0287V0.902893H37.7902V0.905356ZM37.9721 11.1246C37.9721 13.137 39.4647 14.4039 41.2033 14.4039C42.9664 14.4039 44.368 13.0706 44.368 11.1246C44.368 9.11225 42.9664 7.86744 41.2033 7.86744C39.4623 7.8699 37.9721 9.18114 37.9721 11.1246Z" fill="#9900CC"/>
    <path d="M57.9959 5.56235H60.6393V16.7091H58.0402L57.9049 15.0805C57.2729 16.3917 55.532 17.024 54.2877 17.0486C50.9877 17.0707 48.5459 15.0362 48.5459 11.1246C48.5459 7.2795 51.1008 5.26713 54.3541 5.29173C55.8467 5.29173 57.2705 5.99287 57.9025 7.09991L57.9959 5.56235ZM51.3074 11.1246C51.3074 13.2502 52.7754 14.5171 54.6074 14.5171C58.9475 14.5171 58.9475 7.75675 54.6074 7.75675C52.7754 7.75675 51.3074 8.99911 51.3074 11.1246Z" fill="#9900CC"/>
    <path d="M65.7049 0.905396V16.7116H62.9705V0.905396H65.7049Z" fill="#9900CC"/>
    <path d="M81.7008 4.70377C81.1573 3.79846 79.6672 2.93987 77.9483 2.93987C75.7327 2.93987 74.6704 3.86734 74.6704 5.04327C74.6704 6.42339 76.2983 6.80715 78.1967 7.03348C81.4967 7.44186 84.5705 8.30044 84.5705 12.0767C84.5705 15.6045 81.4524 17.1199 77.9262 17.1199C74.6951 17.1199 72.2065 16.126 71.0336 13.2305L73.5196 11.9414C74.2205 13.6831 76.0524 14.4507 77.9729 14.4507C79.8492 14.4507 81.6123 13.7938 81.6123 12.0767C81.6123 10.5834 80.0532 9.97331 77.9508 9.74698C74.7196 9.36321 71.7344 8.50216 71.7344 4.95223C71.7344 1.69752 74.9434 0.361679 77.8598 0.339539C80.3237 0.339539 82.8787 1.04067 84.0762 3.48356L81.7008 4.70377Z" fill="#66CCCC"/>
    <path d="M89.6581 0.880758V7.0753C90.6516 5.7862 91.8737 5.40243 93.1401 5.40243C96.3048 5.40243 97.7065 7.5501 97.7065 10.8294V16.7091H94.9499V10.8516C94.9499 8.81706 93.8876 7.95602 92.4196 7.95602C90.7917 7.95602 89.663 9.33614 89.663 11.009V16.7066H86.9065V0.878296H89.6581V0.880758Z" fill="#66CCCC"/>
    <path d="M108.868 5.56235H111.511V16.7091H108.912L108.777 15.0805C108.145 16.3917 106.404 17.024 105.16 17.0486C101.86 17.0707 99.418 15.0362 99.418 11.1246C99.418 7.2795 101.973 5.26713 105.226 5.29173C106.719 5.29173 108.143 5.99287 108.775 7.09991L108.868 5.56235ZM102.179 11.1246C102.179 13.2502 103.647 14.5171 105.479 14.5171C109.82 14.5171 109.82 7.75675 105.479 7.75675C103.647 7.75675 102.179 8.99911 102.179 11.1246Z" fill="#66CCCC"/>
    <path d="M116.395 5.56237L116.599 6.85146C117.457 5.47134 118.611 5.26715 119.742 5.26715C120.895 5.26715 122.002 5.71981 122.611 6.32992L121.367 8.72605C120.802 8.25125 120.283 8.00278 119.378 8.00278C117.932 8.00278 116.597 8.77279 116.597 10.8294V16.7091H113.84V5.56237H116.395Z" fill="#66CCCC"/>
    <path d="M126.002 12.121C126.184 13.5011 127.382 14.495 129.324 14.495C130.343 14.495 131.675 14.1112 132.307 13.4544L134.07 15.1961C132.895 16.4163 130.974 17.0043 129.278 17.0043C125.434 17.0043 123.152 14.6303 123.152 11.0582C123.152 7.66575 125.459 5.22534 129.074 5.22534C132.804 5.22534 135.13 7.53045 134.702 12.121H126.002ZM132.059 9.83557C131.877 8.38903 130.748 7.66576 129.165 7.66576C127.672 7.66576 126.452 8.38903 126.047 9.83557H132.059Z" fill="#66CCCC"/>
</svg>
