<svg width="135" height="101" viewBox="0 0 135 101" fill="none" xmlns="http://www.w3.org/2000/svg">
    <path d="M114.853 39.5511C113.186 33.5804 110.801 28.274 108.551 24.2074C105.73 19.115 100.643 13.784 94.0622 9.44187C89.1909 9.19832 44.1712 7.83788 16.168 38.5055C14.7048 43.93 14.1516 49.731 14.8696 55.7361C65.2401 32.3553 109.338 38.6384 114.853 39.5511Z" fill="#9900CC"/>
    <path d="M95.8205 91.2895C103.048 86.6694 108.057 81.4048 111.386 75.8499C83.0017 90.3842 63.0271 93.4175 42.5927 94.9255C57.9689 102.901 77.4468 103.032 95.8205 91.2895Z" fill="#9900CC"/>
    <path d="M90.1721 7.09495C77.5819 0.159925 60.7647 -2.95457 43.9426 4.54137C37.1459 7.56975 29.7123 13.7299 24.0197 21.8876C41.3311 9.74695 67.1287 4.58319 90.1721 7.09495Z" fill="#9900CC"/>
    <path d="M15.2533 58.3143C15.8238 61.5001 16.7582 64.7352 18.1131 67.9973C22.5049 78.5609 29.8943 87.1787 39.0246 92.8886C91.05 83.9584 113.439 65.4338 116.297 62.9048C117.273 57.7362 117.229 52.5601 116.548 47.6251C58.5812 43.1871 23.882 54.9169 15.2533 58.3143Z" fill="#9900CC"/>
    <path d="M111.288 29.7107C111.76 30.7685 112.222 31.8682 112.667 33.0121C152.066 29.9788 103.114 57.4114 69.5385 68.1104C53.7246 73.1487 -16.9402 86.6793 17.5918 54.5479C45.959 32.4217 82.3623 24.1041 117.076 17.5405C78.7082 17.2183 23.0484 25.6933 2.89426 61.8839C-18.3762 100.082 83.8598 67.7906 105.684 59.1064C147.959 42.2843 139.023 25.7966 111.288 29.7107Z" fill="#66CCCC"/>
</svg>
