<svg width="860" height="571" viewBox="0 0 860 571" fill="none" xmlns="http://www.w3.org/2000/svg">
    <g clip-path="url(#clip0_1251_7120)">
        <path d="M435.669 160.485C428.001 147.804 418.914 134.265 404.684 130.124C388.205 125.328 371.276 134.854 356.917 144.255C313.974 172.367 272.619 202.834 233.042 235.514L233.085 236.006C263.898 233.882 294.71 231.757 325.522 229.632C347.784 228.097 370.811 226.351 390.484 215.82C397.95 211.825 405.227 206.487 413.686 206.115C424.197 205.653 433.361 212.993 440.562 220.661C483.163 266.02 495.491 335.385 543.285 375.236C513.148 300.92 477.163 229.112 435.669 160.485Z" fill="#F2F2F2"/>
        <path d="M697.53 545.214C692.819 539.266 690.894 537.873 686.247 531.87C648.41 482.938 612.846 432.354 579.555 380.117C556.943 344.639 535.452 308.481 515.082 271.641C505.385 254.126 495.953 236.475 486.787 218.686C479.675 204.892 472.721 191.017 465.926 177.059C463.982 173.072 462.094 169.067 460.215 165.052C455.788 155.613 451.443 146.127 446.778 136.815C441.462 126.202 434.991 115.076 425.229 107.946C420.786 104.568 415.474 102.524 409.912 102.053C401.966 101.539 394.633 104.821 387.74 108.404C337.309 134.698 290.096 167.665 247.392 205.177C204.579 242.773 166.31 285.248 133.368 331.735C132.36 333.174 129.977 331.799 130.994 330.351C134.999 324.687 139.084 319.084 143.249 313.543C195.03 244.683 258.521 185.467 330.82 138.602C342.983 130.721 355.376 123.208 367.997 116.066C374.358 112.464 380.747 108.908 387.245 105.572C393.616 102.3 400.38 99.3582 407.658 99.2482C432.424 98.8633 445.247 126.908 454.056 145.779C456.824 151.717 459.626 157.638 462.461 163.54C473.176 185.948 484.303 208.152 495.843 230.151C502.965 243.733 510.243 257.236 517.676 270.66C540.811 312.461 565.4 353.416 591.444 393.525C625.944 446.654 660.17 493.588 699.473 543.271C700.555 544.646 698.621 546.607 697.53 545.214Z" fill="#E4E4E4"/>
        <path d="M244.944 191.328C243.506 189.725 242.076 188.121 240.627 186.517C229.207 173.888 216.952 161.405 201.269 154.165C193.791 150.603 185.628 148.711 177.346 148.62C168.785 148.647 160.417 150.893 152.507 154.036C148.767 155.53 145.109 157.226 141.507 159.031C137.392 161.102 133.349 163.311 129.326 165.538C121.773 169.717 114.318 174.08 106.961 178.626C92.323 187.672 78.1432 197.408 64.422 207.834C57.309 213.242 50.3428 218.826 43.5234 224.588C37.1807 229.94 30.9662 235.436 24.8801 241.076C23.5786 242.276 21.6353 240.333 22.9368 239.133C24.5408 237.639 26.1632 236.154 27.7856 234.688C32.3686 230.545 37.0249 226.482 41.7547 222.498C50.3795 215.221 59.2276 208.225 68.2991 201.511C82.4056 191.063 96.9977 181.323 112.075 172.293C119.61 167.784 127.248 163.464 134.99 159.334C137.328 158.087 139.693 156.868 142.085 155.713C147.513 152.976 153.153 150.68 158.95 148.849C167.162 146.193 175.85 145.339 184.422 146.347C192.698 147.551 200.672 150.309 207.924 154.476C223.322 163.082 235.265 176.389 246.888 189.376C248.061 190.696 246.127 192.648 244.944 191.328Z" fill="#E4E4E4"/>
        <path d="M560.457 322.201L597.356 308.707L615.676 302.007C621.643 299.825 627.595 297.341 633.763 295.778C639.123 294.247 644.815 294.32 650.134 295.987C654.878 297.742 659.221 300.434 662.903 303.901C666.666 307.366 670.166 311.104 673.377 315.085C677.365 319.878 681.295 324.721 685.242 329.548C701.534 349.47 717.719 369.479 733.798 389.574C749.876 409.669 765.847 429.849 781.711 450.114C797.613 470.429 813.405 490.829 829.089 511.314C831.01 513.824 832.93 516.334 834.848 518.846C835.907 520.234 838.297 518.866 837.222 517.459C821.423 496.768 805.514 476.161 789.494 455.64C773.436 435.069 757.266 414.586 740.985 394.19C724.705 373.794 708.315 353.487 691.814 333.268C687.704 328.231 683.586 323.2 679.462 318.174C675.983 313.934 672.543 309.649 668.727 305.703C661.723 298.459 652.972 292.058 642.497 291.885C636.338 291.782 630.378 293.737 624.655 295.806C618.487 298.038 612.333 300.311 606.172 302.564L569.015 316.153L559.726 319.55C558.077 320.153 558.789 322.811 560.457 322.201Z" fill="#E4E4E4"/>
        <path d="M196.413 170.056C177.662 160.42 153.648 162.307 136.417 174.346C169.284 180.016 201.791 187.602 233.773 197.066C220.492 189.284 210.104 177.092 196.413 170.056Z" fill="#F2F2F2"/>
        <path d="M136.233 174.313L132.623 177.247C133.844 176.22 135.113 175.257 136.417 174.346C136.356 174.335 136.294 174.323 136.233 174.313Z" fill="#F2F2F2"/>
        <path d="M661.514 322.336C657.882 317.915 653.955 313.286 648.522 311.491L643.449 311.691C682.061 379.912 734.21 439.523 796.693 486.866C751.634 432.023 706.574 377.179 661.514 322.336Z" fill="#F2F2F2"/>
        <path d="M346.097 285.866C348.444 294.394 353.732 301.816 361.026 306.82C363.845 308.739 367.181 310.581 368.146 313.853C368.653 315.938 368.341 318.139 367.273 320.001C366.206 321.839 364.909 323.533 363.412 325.041L363.275 325.553C356.278 321.407 349.621 316.162 345.756 309.006C341.89 301.85 341.351 292.471 346.097 285.866Z" fill="#F2F2F2"/>
        <path d="M579.061 488.814C581.408 497.341 586.697 504.763 593.99 509.767C596.81 511.687 600.146 513.528 601.11 516.8C601.618 518.886 601.305 521.086 600.237 522.948C599.171 524.786 597.873 526.48 596.376 527.988L596.24 528.5C589.242 524.354 582.585 519.109 578.72 511.953C574.855 504.797 574.315 495.419 579.061 488.814Z" fill="#F2F2F2"/>
        <path d="M114.132 474.817C116.479 483.345 121.768 490.767 129.061 495.771C131.881 497.69 135.217 499.532 136.181 502.803C136.689 504.889 136.376 507.09 135.308 508.952C134.242 510.79 132.944 512.484 131.447 513.992L131.311 514.504C124.313 510.357 117.656 505.113 113.791 497.957C109.926 490.801 109.386 481.422 114.132 474.817Z" fill="#F2F2F2"/>
        <path d="M649.15 101.974C677.312 101.974 700.142 79.146 700.142 50.9868C700.142 22.8276 677.312 0 649.15 0C620.987 0 598.157 22.8276 598.157 50.9868C598.157 79.146 620.987 101.974 649.15 101.974Z" fill="#9900CC"/>
        <path d="M741.171 11.8674C716.458 8.52729 688.244 21.8835 681.839 45.9821C680.224 41.6973 677.29 38.0366 673.459 35.5288C669.627 33.021 665.098 31.7959 660.525 32.0305C655.952 32.2652 651.572 33.9474 648.017 36.8342C644.463 39.7209 641.919 43.6628 640.751 48.0902L643.581 50.1164C696.54 61.5677 751.361 61.3198 804.215 49.3902C787.025 31.3259 765.884 15.2074 741.171 11.8674Z" fill="#F0F0F0"/>
        <path d="M635.187 79.8497C610.474 76.5096 582.26 89.8658 575.855 113.964C574.241 109.68 571.306 106.019 567.475 103.511C563.644 101.003 559.114 99.7782 554.541 100.013C549.968 100.247 545.588 101.93 542.034 104.816C538.479 107.703 535.935 111.645 534.768 116.073L537.597 118.099C590.556 129.55 645.378 129.302 698.231 117.372C681.041 99.3082 659.9 83.1897 635.187 79.8497Z" fill="#F0F0F0"/>
        <path d="M850.881 92.7042C850.779 92.7044 850.677 92.6886 850.58 92.6573C586.213 9.06082 353.211 19.9925 204.298 43.8838C184.033 47.134 163.713 50.8879 143.904 55.0421C138.846 56.1014 133.6 57.2368 128.309 58.4191C121.992 59.826 115.758 61.2748 109.78 62.7237C107.198 63.3349 104.667 63.9509 102.187 64.5718C98.4288 65.4993 94.6159 66.4659 90.5286 67.528C85.9615 68.7055 81.321 69.9405 76.7334 71.199C76.7166 71.2049 76.6995 71.2098 76.6821 71.2136L76.6826 71.2146C71.5008 72.6293 66.3463 74.085 61.3617 75.5387C58.6639 76.3178 56.0588 77.0862 53.5636 77.8448C53.2848 77.9219 53.0378 77.9961 52.7873 78.0722L52.2513 78.2353C51.9408 78.33 51.6342 78.4227 51.3276 78.5106L51.3081 78.5164L51.3085 78.5175L50.4971 78.7694C49.5295 79.0623 48.5853 79.3483 47.6567 79.6334C23.1156 87.1979 9.62447 92.5793 9.49119 92.632C9.36931 92.6808 9.23901 92.7052 9.10772 92.7037C8.97642 92.7022 8.84671 92.6748 8.72599 92.6232C8.60526 92.5716 8.49588 92.4967 8.40411 92.4028C8.31233 92.3089 8.23995 92.1979 8.19109 92.076C8.14224 91.9541 8.11788 91.8238 8.11939 91.6925C8.1209 91.5613 8.14825 91.4316 8.19988 91.3109C8.25152 91.1902 8.32642 91.0808 8.42032 90.989C8.51423 90.8973 8.62529 90.8249 8.74716 90.776C8.88142 90.7233 22.4384 85.3146 47.069 77.7218C48.0009 77.4357 48.9476 77.1497 49.9181 76.8558L50.6719 76.6215C50.6978 76.6117 50.7237 76.6039 50.75 76.5961C51.0552 76.5092 51.3598 76.4165 51.6693 76.3228L52.2063 76.1597C52.4739 76.0787 52.7375 75.9986 53.0075 75.9244C55.4856 75.1707 58.0995 74.4004 60.8042 73.6184C65.7907 72.1637 70.9501 70.708 76.1358 69.2914C76.1519 69.2855 76.1685 69.2816 76.1846 69.2767C80.7884 68.0144 85.4459 66.7735 90.0277 65.5921C94.1213 64.5289 97.9415 63.5604 101.706 62.631C104.197 62.011 106.733 61.3937 109.314 60.7789C115.298 59.3281 121.545 57.8773 127.874 56.4675C133.173 55.2842 138.428 54.1459 143.494 53.0856C163.334 48.9246 183.685 45.1648 203.982 41.9098C353.108 17.9843 586.444 7.03496 851.182 90.7515C851.41 90.8234 851.604 90.9743 851.73 91.1771C851.856 91.3798 851.905 91.6209 851.869 91.8568C851.833 92.0927 851.713 92.3079 851.532 92.4633C851.351 92.6187 851.12 92.7042 850.881 92.7042Z" fill="#CCCCCC"/>
        <path d="M262.949 419.731C262.602 418.719 262.02 417.804 261.249 417.062C260.964 416.798 260.656 416.56 260.329 416.352C257.719 414.613 253.82 414.223 251.34 416.352C251.091 416.569 250.86 416.806 250.65 417.062C249.911 417.972 249.151 418.861 248.371 419.731C247.091 421.191 245.781 422.6 244.411 423.97C244.022 424.35 243.632 424.74 243.232 425.12C243.002 425.35 242.772 425.57 242.542 425.79C241.662 426.629 240.762 427.439 239.852 428.239C239.372 428.669 238.892 429.089 238.402 429.499C237.672 430.109 236.943 430.718 236.203 431.308C236.133 431.358 236.063 431.408 235.993 431.468C235.973 431.478 235.963 431.498 235.943 431.508C235.933 431.508 235.923 431.508 235.913 431.528C235.886 431.539 235.862 431.556 235.843 431.578C235.623 431.728 235.473 431.828 235.363 431.918C235.403 431.898 235.443 431.868 235.483 431.848C235.303 431.988 235.113 432.128 234.933 432.268C233.183 433.558 231.393 434.797 229.564 435.957C225.037 438.854 220.282 441.378 215.346 443.505C215.016 443.635 214.676 443.775 214.336 443.905C201.413 449.199 187.394 451.265 173.492 449.923C172.072 449.813 170.653 449.663 169.233 449.474C167.593 449.234 165.963 448.944 164.344 448.614C158.177 447.384 152.144 445.562 146.326 443.175C139.05 439.843 132.129 435.784 125.67 431.058C124.67 430.348 123.66 429.639 122.65 428.949C123.8 426.13 124.93 423.31 126.03 420.471C126.579 419.101 127.109 417.732 127.629 416.352C131.719 405.725 135.558 394.998 139.238 384.23C142.957 373.323 146.466 362.353 149.766 351.319C150.106 350.199 150.436 349.08 150.756 347.96C152.486 342.131 154.145 336.29 155.735 330.434C155.885 329.865 156.045 329.305 156.185 328.735C156.645 327.055 157.095 325.376 157.535 323.696C158.535 319.907 156.275 315.378 152.296 314.469C150.38 313.977 148.348 314.249 146.628 315.226C144.908 316.203 143.635 317.81 143.077 319.707C142.647 321.327 142.217 322.936 141.777 324.556C139.667 332.384 137.448 340.185 135.118 347.96C134.778 349.08 134.438 350.199 134.098 351.319C128.959 368.255 123.317 385.02 117.171 401.616C116.431 403.625 115.681 405.628 114.921 407.624C114.551 408.604 114.181 409.584 113.801 410.564C113.072 412.493 112.322 414.423 111.572 416.352C111.142 417.482 110.702 418.612 110.262 419.731C109.972 420.441 109.692 421.151 109.412 421.851C106.561 420.827 103.608 420.117 100.603 419.731L100.124 419.671C97.7943 419.391 95.4387 419.411 93.1146 419.731C89.6362 420.137 86.2894 421.302 83.3108 423.143C80.3322 424.985 77.7946 427.458 75.8772 430.389C71.1079 437.897 71.1679 448.634 77.8569 455.012C84.7458 461.58 95.1743 461.53 103.283 457.421C107.58 455.097 111.203 451.701 113.801 447.564C114.797 446.064 115.711 444.512 116.541 442.915C116.751 443.055 116.961 443.195 117.171 443.345C117.971 443.905 118.771 444.475 119.561 445.035C124.163 448.369 129.013 451.346 134.068 453.942C144.939 459.346 156.64 462.884 168.683 464.41C168.953 464.44 169.213 464.48 169.483 464.51C170.813 464.68 172.153 464.81 173.492 464.92C192.712 466.368 211.954 462.435 229.064 453.562C230.514 452.813 231.95 452.026 233.373 451.203C235.583 449.923 237.742 448.564 239.852 447.124C241.002 446.344 242.122 445.555 243.232 444.725C248.081 441.153 252.602 437.155 256.74 432.778C258.309 431.128 259.812 429.425 261.249 427.669C262.607 426.232 263.39 424.347 263.449 422.371C263.441 421.468 263.271 420.574 262.949 419.731ZM97.3839 443.545C97.5939 443.395 97.8039 443.235 98.0038 443.075C97.9439 443.225 97.6539 443.395 97.3839 443.545ZM100.593 440.316C100.363 440.576 100.153 440.836 99.9235 441.096C99.2239 441.879 98.4723 442.613 97.6739 443.295C97.5639 443.395 97.4439 443.495 97.3239 443.585C97.3226 443.585 97.3213 443.585 97.3201 443.586C97.3188 443.586 97.3177 443.587 97.3168 443.588C97.3159 443.589 97.3151 443.59 97.3146 443.591C97.3141 443.592 97.3139 443.594 97.3139 443.595C97.1695 443.66 97.0292 443.733 96.894 443.815C96.464 444.075 96.0241 444.315 95.5742 444.535C94.6933 444.859 93.787 445.11 92.8646 445.285C92.1559 445.336 91.4446 445.343 90.735 445.305H90.7149C90.2252 445.196 89.7414 445.062 89.2652 444.905C89.0252 444.785 88.7952 444.645 88.5653 444.505C88.4753 444.425 88.3952 444.345 88.3453 444.295C88.2476 444.206 88.1574 444.109 88.0754 444.005C88.0754 444.004 88.0752 444.002 88.0747 444.001C88.0742 444 88.0735 443.999 88.0725 443.998C88.0716 443.997 88.0705 443.996 88.0693 443.996C88.068 443.995 88.0667 443.995 88.0654 443.995C87.9554 443.795 87.8354 443.595 87.7255 443.395C87.7198 443.39 87.7162 443.383 87.7155 443.375C87.6355 443.125 87.5655 442.865 87.5055 442.605C87.4838 442.149 87.4871 441.692 87.5155 441.236C87.6496 440.597 87.8301 439.969 88.0554 439.356C88.2578 438.922 88.4883 438.501 88.7453 438.096C88.7653 438.056 88.8653 437.897 88.9753 437.717C88.9853 437.707 88.9853 437.707 88.9853 437.697C89.1352 437.527 89.2852 437.347 89.4452 437.187C89.7152 436.887 90.0051 436.627 90.2951 436.357C90.859 435.988 91.4431 435.651 92.0448 435.347C92.9993 435.008 93.9788 434.744 94.9744 434.557C96.4424 434.441 97.918 434.454 99.3837 434.597C100.772 434.838 102.142 435.176 103.483 435.607C102.67 437.185 101.745 438.701 100.713 440.146C100.673 440.206 100.633 440.266 100.593 440.316ZM89.4751 437.027C89.3871 437.168 89.2831 437.299 89.1652 437.417C89.2445 437.269 89.3495 437.137 89.4751 437.027Z" fill="#3F3D56"/>
        <path d="M232.893 317.628C232.803 320.767 232.713 323.906 232.623 327.045C232.433 334.013 232.237 340.985 232.033 347.96C231.823 355.808 231.603 363.652 231.373 371.494C231.263 375.543 231.15 379.592 231.034 383.641C230.724 394.548 230.417 405.452 230.114 416.352C230.084 417.482 230.044 418.602 230.014 419.731C229.864 425.14 229.714 430.548 229.564 435.957C229.394 441.825 229.227 447.694 229.064 453.562C228.944 457.961 228.821 462.363 228.694 466.769C227.794 498.691 226.894 530.613 225.994 562.534C225.956 564.511 225.154 566.396 223.756 567.794C222.358 569.192 220.472 569.994 218.495 570.032C216.512 570.016 214.613 569.221 213.211 567.819C211.808 566.416 211.013 564.518 210.997 562.534C211.497 544.579 212.003 526.624 212.516 508.668C212.966 492.432 213.423 476.197 213.886 459.961C214.036 454.612 214.186 449.26 214.336 443.905C214.566 435.847 214.793 427.789 215.016 419.731C215.046 418.602 215.086 417.482 215.116 416.352C215.136 415.362 215.166 414.383 215.196 413.393C215.636 397.747 216.076 382.098 216.516 366.445C216.696 360.287 216.869 354.125 217.036 347.96C217.236 340.932 217.436 333.907 217.636 326.885C217.726 323.796 217.806 320.717 217.896 317.628C217.934 315.651 218.736 313.766 220.134 312.368C221.532 310.97 223.417 310.168 225.394 310.13C227.378 310.146 229.276 310.941 230.679 312.343C232.082 313.746 232.877 315.644 232.893 317.628Z" fill="#3F3D56"/>
        <path d="M644.258 319.708C636.395 349.48 626.997 378.826 616.102 407.627C613.095 415.571 610.019 423.5 606.732 431.333L607.488 429.541C606.02 433.272 604.146 436.83 601.899 440.151C601.746 440.365 601.59 440.577 601.432 440.787C602.209 439.793 602.357 439.597 601.875 440.198C601.621 440.499 601.37 440.8 601.107 441.093C600.407 441.876 599.656 442.612 598.859 443.296C598.658 443.467 598.454 443.636 598.247 443.8L599.185 443.071C599.076 443.328 598.312 443.668 598.074 443.814C597.304 444.279 596.5 444.686 595.67 445.032L597.461 444.276C596.1 444.824 594.681 445.214 593.23 445.437L595.224 445.169C593.799 445.366 592.355 445.381 590.927 445.215L592.92 445.483C591.751 445.322 590.607 445.014 589.516 444.566L591.307 445.322C590.725 445.068 590.164 444.768 589.629 444.426C589.357 444.249 588.524 443.617 589.614 444.45C590.747 445.316 589.759 444.525 589.526 444.295C589.332 444.103 589.157 443.895 588.966 443.7C588.084 442.795 589.963 445.256 589.363 444.198C589.043 443.668 588.75 443.122 588.485 442.562L589.241 444.353C588.897 443.5 588.653 442.611 588.513 441.702L588.781 443.695C588.638 442.565 588.637 441.422 588.778 440.291L588.51 442.285C588.693 441.023 589.027 439.788 589.505 438.606L588.749 440.397C589.082 439.602 589.475 438.833 589.927 438.099C590.134 437.719 590.378 437.361 590.655 437.028C590.704 437.044 589.387 438.54 590.086 437.785C590.269 437.587 590.44 437.379 590.625 437.183C590.921 436.869 591.238 436.582 591.55 436.285C592.594 435.291 590.088 437.251 591.294 436.464C592.167 435.89 593.087 435.389 594.042 434.965L592.251 435.721C593.852 435.064 595.53 434.613 597.246 434.382L595.252 434.649C597.4 434.402 599.57 434.428 601.712 434.726L599.718 434.458C602.43 434.869 605.08 435.615 607.609 436.677L605.817 435.922C611.206 438.235 615.979 441.669 620.743 445.037C625.345 448.369 630.193 451.346 635.247 453.941C646.118 459.346 657.82 462.885 669.864 464.412C687.137 466.528 704.665 464.273 720.839 457.853C737.013 451.433 751.316 441.055 762.436 427.67C763.792 426.231 764.574 424.345 764.632 422.368C764.618 420.382 763.83 418.48 762.436 417.066C759.684 414.541 754.487 413.828 751.831 417.066C749.313 420.14 746.606 423.054 743.725 425.791C742.38 427.066 741 428.303 739.583 429.5C738.774 430.183 737.954 430.854 737.123 431.51C736.73 431.821 735.505 432.648 737.386 431.313C736.955 431.619 736.541 431.953 736.116 432.267C729.819 436.909 722.995 440.79 715.787 443.829L717.578 443.073C709.843 446.318 701.719 448.543 693.41 449.694L695.404 449.426C686.857 450.55 678.198 450.538 669.654 449.388L671.648 449.656C663.106 448.483 654.752 446.208 646.795 442.888L648.586 443.643C640.907 440.246 633.62 436.026 626.853 431.056C623.331 428.448 619.616 426.11 615.741 424.063C611.227 421.758 606.339 420.272 601.306 419.676C591.868 418.565 582.252 422.241 577.063 430.393C572.288 437.896 572.35 448.632 579.037 455.012C585.923 461.583 596.352 461.527 604.468 457.417C612.285 453.459 616.979 445.235 620.281 437.481C627.711 420.03 634.289 402.176 640.418 384.231C646.481 366.478 651.98 348.545 656.914 330.432C657.525 328.189 658.127 325.943 658.72 323.695C659.721 319.907 657.46 315.377 653.483 314.472C651.566 313.978 649.533 314.249 647.812 315.226C646.091 316.203 644.817 317.81 644.258 319.708Z" fill="#3F3D56"/>
        <path d="M719.08 317.627L716.381 413.395L713.696 508.665L712.177 562.535C712.194 564.518 712.99 566.415 714.392 567.818C715.795 569.22 717.693 570.016 719.676 570.033C721.653 569.995 723.538 569.192 724.936 567.794C726.334 566.396 727.137 564.511 727.175 562.535L729.874 466.766L732.559 371.497L734.077 317.627C734.061 315.644 733.265 313.746 731.862 312.344C730.46 310.941 728.562 310.146 726.579 310.129C724.602 310.167 722.716 310.97 721.318 312.368C719.92 313.766 719.118 315.651 719.08 317.627Z" fill="#3F3D56"/>
        <path opacity="0.2" d="M459.521 535.796H461.85V429.782H516.17V427.46H461.85V382.727H503.799C503.184 381.945 502.551 381.173 501.9 380.411H461.85V350.865C461.079 350.537 460.303 350.221 459.521 349.922V380.411H413.876V342.555C413.094 342.591 412.324 342.645 411.548 342.71V380.411H375.133V352.167C374.351 352.513 373.581 352.877 372.816 353.259V380.411H342.205V382.727H372.816V427.46H342.205V429.782H372.816V535.796H375.133V429.782C379.915 429.781 384.651 430.722 389.069 432.552C393.488 434.381 397.503 437.063 400.884 440.444C404.266 443.826 406.948 447.84 408.778 452.258C410.607 456.676 411.549 461.411 411.548 466.193V535.796H413.876V429.782H459.521V535.796ZM375.133 427.46V382.727H411.548V427.46H375.133ZM413.876 427.46V382.727H414.79C420.664 382.727 426.481 383.885 431.909 386.133C437.336 388.381 442.267 391.676 446.421 395.83C450.575 399.984 453.869 404.915 456.117 410.342C458.365 415.769 459.522 421.586 459.521 427.46H413.876Z" fill="black"/>
        <path d="M445.301 504.009C442.369 517.085 435.347 528.886 425.254 537.701C424.514 538.34 423.774 538.96 423.004 539.57C421.134 539.74 419.278 539.913 417.435 540.09C415.905 540.23 414.395 540.38 412.896 540.52L412.626 540.55L412.436 538.91L411.676 532.272C408.728 527.46 406.901 522.046 406.33 516.432C405.759 510.818 406.458 505.148 408.376 499.84C411.016 492.722 415.795 486.434 420.495 480.196C426.984 471.578 433.293 463.06 433.523 452.553C436.715 456.638 439.37 461.117 441.421 465.879C439.486 466.79 437.747 468.071 436.302 469.648C435.892 470.098 435.482 470.728 435.762 471.268C436.002 471.728 436.602 471.838 437.122 471.898C438.372 472.028 439.632 472.158 440.881 472.288C441.881 472.398 442.881 472.497 443.881 472.607C445.091 476.577 445.911 480.656 446.331 484.784C447.004 491.207 446.657 497.696 445.301 504.009Z" fill="#3F3D56"/>
        <path d="M478.496 477.806C472.597 482.095 469.147 488.263 466.467 495.062C463.721 495.94 461.251 497.518 459.299 499.64C458.889 500.09 458.479 500.72 458.759 501.26C458.999 501.72 459.599 501.83 460.118 501.89C461.368 502.02 462.628 502.15 463.878 502.28C461.198 510.318 458.739 518.636 453.999 525.424C450.848 529.906 446.739 533.631 441.971 536.331C440.671 537.072 439.329 537.736 437.952 538.32C432.873 538.71 427.89 539.127 423.004 539.57C421.134 539.74 419.278 539.913 417.435 540.09C415.905 540.23 414.395 540.38 412.896 540.52C412.886 539.97 412.886 539.42 412.896 538.87C413.212 524.223 418.601 510.139 428.143 499.021C428.593 498.501 429.053 497.991 429.523 497.481C434.357 492.318 440.043 488.023 446.331 484.784C456.239 479.633 467.344 477.224 478.496 477.806Z" fill="#9900CC"/>
        <path d="M419.165 534.961L418.015 538.36L417.435 540.09C415.905 540.23 414.395 540.38 412.896 540.52L412.626 540.55C410.966 540.72 409.316 540.89 407.666 541.06C407.237 540.56 406.807 540.05 406.387 539.53C395.95 526.894 390.941 510.64 392.453 494.322C393.965 478.004 401.875 462.947 414.455 452.443C413.136 459.351 414.675 465.969 417.205 472.538C416.935 472.647 416.675 472.757 416.425 472.877C414.49 473.789 412.751 475.069 411.306 476.646C410.896 477.096 410.486 477.726 410.766 478.266C411.006 478.726 411.606 478.836 412.126 478.896C413.376 479.026 414.635 479.156 415.885 479.286C416.885 479.396 417.885 479.496 418.885 479.606C419.355 479.656 419.825 479.706 420.295 479.756C420.365 479.906 420.425 480.046 420.495 480.196C423.344 486.374 426.414 492.582 428.143 499.021C428.577 500.636 428.918 502.275 429.163 503.929C429.933 509.521 429.434 515.213 427.703 520.585C425.972 525.958 423.054 530.871 419.165 534.961Z" fill="#9900CC"/>
        <path d="M519.808 389.96C511.2 373.172 497.865 359.047 482.181 348.667C466.447 338.301 448.392 331.988 429.627 330.292C427.167 330.068 424.701 329.937 422.229 329.899C419.308 329.855 375.37 342.527 360.651 352.875C345.94 363.097 333.839 376.633 325.323 392.392C316.823 408.237 312.642 426.04 313.2 444.012C313.928 462.092 318.968 479.737 327.9 495.474C336.71 511.161 349.219 524.458 364.339 534.21C379.674 543.994 395.079 569.936 413.186 570.852C431.429 571.775 452.234 547.303 468.872 539.873C485.511 532.381 499.895 520.66 510.591 505.877C520.986 491.39 527.71 474.598 530.188 456.942C532.761 438.863 531.561 420.219 525.387 402.94C523.803 398.5 521.939 394.164 519.808 389.96C518.028 386.455 512.813 385.165 509.548 387.27C507.866 388.305 506.648 389.949 506.146 391.86C505.645 393.771 505.9 395.801 506.857 397.528C507.902 399.586 508.874 401.678 509.772 403.804L509.016 402.013C512.416 410.186 514.727 418.77 515.892 427.545L515.624 425.551C516.863 435.071 516.84 444.713 515.558 454.227L515.826 452.233C514.53 461.746 511.99 471.048 508.272 479.9L509.028 478.109C507.116 482.626 504.887 487.002 502.358 491.204C501.076 493.327 499.716 495.401 498.278 497.424C497.646 498.312 496.995 499.185 496.339 500.055C495.483 501.19 497.506 498.572 496.621 499.685C496.471 499.875 496.321 500.065 496.169 500.254C495.715 500.822 495.255 501.384 494.788 501.942C491.671 505.66 488.269 509.131 484.613 512.323C483.702 513.117 482.777 513.894 481.836 514.653C481.367 515.031 480.904 515.426 480.415 515.778C480.434 515.764 481.994 514.578 481.07 515.267C480.78 515.483 480.492 515.703 480.201 515.918C478.261 517.355 476.27 518.719 474.228 520.009C469.525 522.972 464.591 525.55 459.474 527.72L461.265 526.965C452.439 530.68 443.162 533.218 433.673 534.514L435.667 534.246C426.183 535.528 416.57 535.545 407.082 534.297L409.075 534.565C400.452 533.407 392.016 531.127 383.984 527.782L385.775 528.538C381.123 526.574 376.637 524.236 372.361 521.549C370.245 520.216 368.184 518.8 366.179 517.302C365.892 517.089 365.609 516.872 365.324 516.657C364.408 515.966 365.981 517.167 365.994 517.175C365.462 516.793 364.949 516.384 364.459 515.95C363.49 515.162 362.536 514.354 361.598 513.529C357.843 510.223 354.336 506.644 351.107 502.823C350.298 501.867 349.507 500.897 348.733 499.913C348.398 499.487 347.786 498.623 349.137 500.441C348.959 500.202 348.775 499.967 348.595 499.729C348.165 499.158 347.739 498.582 347.32 498.002C345.852 495.971 344.456 493.889 343.133 491.758C340.143 486.933 337.534 481.883 335.329 476.653L336.084 478.444C332.476 469.86 330.009 460.84 328.745 451.614L329.013 453.608C327.873 445.104 327.857 436.487 328.965 427.979L328.697 429.972C329.833 421.732 332.05 413.679 335.29 406.019L334.534 407.81C336.573 403.015 338.979 398.383 341.729 393.957C343.105 391.742 344.564 389.581 346.106 387.474C346.456 386.996 346.81 386.52 347.168 386.047C347.492 385.619 348.383 384.554 346.862 386.435C347.012 386.251 347.155 386.061 347.302 385.875C348.148 384.803 349.014 383.749 349.901 382.711C353.258 378.781 356.895 375.099 360.783 371.693C361.765 370.832 362.763 369.989 363.777 369.164C364.237 368.79 364.701 368.419 365.168 368.052C365.354 367.905 365.543 367.761 365.729 367.613C363.732 369.202 365.174 368.046 365.628 367.706C367.717 366.141 369.861 364.654 372.062 363.246C376.954 360.118 382.1 357.406 387.446 355.14L385.655 355.896C393.414 352.639 427.789 344.95 434.041 345.789L432.048 345.521C441.237 346.804 450.219 349.285 458.764 352.902L456.972 352.146C461.302 353.984 465.51 356.098 469.571 358.473C471.599 359.662 473.588 360.916 475.537 362.235C476.459 362.859 477.372 363.497 478.275 364.149C478.726 364.475 479.175 364.805 479.621 365.138C479.869 365.323 480.115 365.51 480.362 365.696C481.401 366.475 478.931 364.568 480.02 365.429C483.666 368.293 487.128 371.383 490.386 374.68C491.987 376.31 493.532 377.991 495.022 379.724C495.787 380.613 496.535 381.515 497.269 382.431C497.633 382.886 498.873 384.531 497.353 382.515C497.725 383.008 498.1 383.497 498.467 383.994C501.627 388.27 504.433 392.797 506.857 397.528C508.65 401.025 513.843 402.329 517.117 400.218C518.8 399.183 520.019 397.539 520.52 395.628C521.021 393.717 520.766 391.687 519.808 389.96Z" fill="#3F3D56"/>
        <path d="M432.431 512.323C431.657 512.358 430.89 512.155 430.236 511.741C429.581 511.326 429.069 510.721 428.771 510.006C428.472 509.291 428.4 508.501 428.564 507.744C428.729 506.987 429.123 506.299 429.692 505.773C429.787 505.394 429.855 505.122 429.951 504.744C429.917 504.661 429.882 504.579 429.848 504.497C426.369 496.201 404.167 519.326 403.207 527.122C402.784 530.569 402.963 534.062 403.734 537.447C396.542 521.762 392.808 504.713 392.784 487.458C392.783 483.128 393.023 478.801 393.505 474.498C393.903 470.97 394.455 467.467 395.161 463.99C399.016 445.121 407.292 427.436 419.309 412.387C426.182 412.77 432.205 411.723 432.787 398.405C432.89 396.036 434.648 393.985 435.035 391.651C434.379 391.737 433.712 391.791 433.056 391.834C432.851 391.844 432.636 391.855 432.432 391.866L432.355 391.869C431.634 391.902 430.918 391.725 430.296 391.36C429.673 390.996 429.168 390.459 428.843 389.814C428.518 389.17 428.387 388.445 428.464 387.728C428.541 387.01 428.825 386.33 429.279 385.77C429.563 385.421 429.846 385.073 430.13 384.724C430.56 384.187 431.001 383.66 431.431 383.122C431.481 383.071 431.528 383.017 431.571 382.96C432.066 382.347 432.561 381.745 433.056 381.132C432.152 379.73 430.938 378.556 429.506 377.701C424.547 374.797 417.706 376.809 414.124 381.293C410.532 385.778 409.854 392.07 411.102 397.674C412.329 402.442 414.359 406.966 417.104 411.053C416.835 411.397 416.555 411.731 416.286 412.075C411.371 418.395 407.086 425.182 403.495 432.338C404.511 424.401 392.085 395.739 387.28 389.668C381.507 382.376 369.671 385.558 368.654 394.802C368.644 394.892 368.635 394.981 368.625 395.071C369.339 395.473 370.038 395.901 370.722 396.353C371.58 396.927 372.246 397.746 372.631 398.705C373.016 399.663 373.102 400.715 372.879 401.724C372.655 402.732 372.132 403.649 371.379 404.355C370.625 405.061 369.676 405.523 368.655 405.681L368.55 405.697C358.996 419.337 389.624 454.839 397.291 446.868C393.682 457.093 391.419 467.743 390.558 478.552C390.07 484.929 390.099 491.335 390.644 497.707L390.611 497.481C388.908 483.603 359.685 462.968 351.151 464.686C346.235 465.677 341.393 465.451 342.14 470.41C342.151 470.489 342.163 470.568 342.176 470.647C343.5 471.187 344.79 471.808 346.037 472.508C346.751 472.911 347.45 473.338 348.133 473.79C348.992 474.364 349.658 475.183 350.042 476.142C350.427 477.1 350.514 478.152 350.29 479.161C350.067 480.169 349.544 481.086 348.79 481.792C348.037 482.498 347.087 482.96 346.067 483.118L345.962 483.134C345.887 483.145 345.822 483.155 345.747 483.166C341.398 498.129 373.65 522.276 393.257 514.593H393.268C395.211 523.035 398.027 531.254 401.669 539.114H431.679C431.786 538.781 431.883 538.437 431.98 538.103C429.202 538.278 426.413 538.112 423.676 537.609C425.903 534.877 428.129 532.124 430.356 529.392C430.405 529.341 430.452 529.287 430.496 529.23C431.625 527.832 432.765 526.445 433.895 525.047L433.895 525.045C433.955 520.759 433.463 516.484 432.432 512.323L432.431 512.323ZM398.065 444.727L398.081 444.706L398.065 444.749V444.727ZM391.418 504.644L391.16 504.063C391.171 503.644 391.171 503.225 391.16 502.794C391.16 502.676 391.138 502.558 391.138 502.439C391.235 503.181 391.321 503.924 391.429 504.666L391.418 504.644Z" fill="#3F3D56"/>
        <path d="M95.2342 449.883C101.308 449.883 106.233 444.96 106.233 438.886C106.233 432.813 101.308 427.889 95.2342 427.889C89.16 427.889 84.2359 432.813 84.2359 438.886C84.2359 444.96 89.16 449.883 95.2342 449.883Z" fill="#3F3D56"/>
        <path d="M227.214 569.852C233.288 569.852 238.212 564.929 238.212 558.855C238.212 552.782 233.288 547.858 227.214 547.858C221.14 547.858 216.216 552.782 216.216 558.855C216.216 564.929 221.14 569.852 227.214 569.852Z" fill="#3F3D56"/>
        <path d="M728.137 569.852C734.212 569.852 739.136 564.929 739.136 558.855C739.136 552.782 734.212 547.858 728.137 547.858C722.063 547.858 717.139 552.782 717.139 558.855C717.139 564.929 722.063 569.852 728.137 569.852Z" fill="#3F3D56"/>
        <path d="M755.133 429.889C761.208 429.889 766.132 424.965 766.132 418.891C766.132 412.818 761.208 407.894 755.133 407.894C749.059 407.894 744.135 412.818 744.135 418.891C744.135 424.965 749.059 429.889 755.133 429.889Z" fill="#3F3D56"/>
        <path d="M723.138 327.915C729.213 327.915 734.137 322.991 734.137 316.918C734.137 310.844 729.213 305.921 723.138 305.921C717.064 305.921 712.14 310.844 712.14 316.918C712.14 322.991 717.064 327.915 723.138 327.915Z" fill="#3F3D56"/>
        <path d="M264.208 418.891C264.202 421.7 263.115 424.399 261.174 426.43C259.233 428.46 256.585 429.667 253.779 429.8C250.972 429.932 248.222 428.981 246.098 427.143C243.973 425.305 242.637 422.721 242.365 419.925C242.093 417.129 242.907 414.336 244.637 412.123C246.368 409.91 248.883 408.447 251.663 408.037C254.442 407.627 257.272 408.3 259.569 409.919C261.865 411.537 263.451 413.977 263.998 416.732C264.14 417.443 264.21 418.166 264.208 418.891Z" fill="#3F3D56"/>
        <path d="M484.175 359.907C490.249 359.907 495.173 354.983 495.173 348.91C495.173 342.836 490.249 337.912 484.175 337.912C478.101 337.912 473.177 342.836 473.177 348.91C473.177 354.983 478.101 359.907 484.175 359.907Z" fill="#3F3D56"/>
        <path d="M375.192 348.91C375.185 351.719 374.099 354.418 372.157 356.448C370.216 358.479 367.568 359.685 364.762 359.818C361.955 359.951 359.206 358.999 357.081 357.161C354.957 355.323 353.62 352.739 353.348 349.943C353.076 347.147 353.89 344.354 355.621 342.141C357.351 339.928 359.866 338.465 362.646 338.055C365.425 337.645 368.256 338.319 370.552 339.937C372.848 341.556 374.434 343.995 374.982 346.75C375.123 347.461 375.193 348.185 375.192 348.91Z" fill="#3F3D56"/>
        <path d="M233.213 316.918C233.207 319.727 232.12 322.426 230.179 324.456C228.237 326.487 225.59 327.693 222.783 327.826C219.977 327.959 217.227 327.008 215.103 325.17C212.978 323.332 211.642 320.747 211.37 317.951C211.098 315.155 211.912 312.362 213.642 310.149C215.373 307.936 217.888 306.473 220.667 306.063C223.447 305.653 226.277 306.327 228.573 307.945C230.87 309.564 232.456 312.003 233.003 314.758C233.144 315.47 233.215 316.193 233.213 316.918Z" fill="#3F3D56"/>
        <path d="M599.157 453.882C605.231 453.882 610.156 448.959 610.156 442.885C610.156 436.812 605.231 431.888 599.157 431.888C593.083 431.888 588.159 436.812 588.159 442.885C588.159 448.959 593.083 453.882 599.157 453.882Z" fill="#3F3D56"/>
        <path d="M426.184 353.908C435.019 353.908 442.181 346.747 442.181 337.912C442.181 329.078 435.019 321.917 426.184 321.917C417.349 321.917 410.186 329.078 410.186 337.912C410.186 346.747 417.349 353.908 426.184 353.908Z" fill="#3F3D56"/>
        <path d="M858.81 570.693L1.19049 571C1.03415 571 0.879342 570.969 0.734904 570.909C0.590466 570.85 0.459234 570.762 0.348686 570.651C0.238138 570.541 0.150436 570.41 0.0906081 570.265C0.03078 570.121 0 569.966 0 569.81C0 569.653 0.03078 569.499 0.0906081 569.354C0.150436 569.21 0.238138 569.078 0.348686 568.968C0.459234 568.857 0.590466 568.77 0.734904 568.71C0.879342 568.65 1.03415 568.619 1.19049 568.619L858.81 568.312C859.125 568.313 859.427 568.439 859.649 568.662C859.872 568.885 859.997 569.187 859.997 569.502C859.997 569.817 859.872 570.12 859.649 570.343C859.427 570.566 859.125 570.692 858.81 570.693Z" fill="#CACACA"/>
    </g>
    <defs>
        <clipPath id="clip0_1251_7120">
            <rect width="860" height="571" fill="white"/>
        </clipPath>
    </defs>
</svg>
